<?xml version="1.0" encoding="utf-8"?>
<!-- Generator: Adobe Illustrator 23.0.1, SVG Export Plug-In . SVG Version: 6.00 Build 0)  -->
<svg version="1.1" id="Layer_1" xmlns="http://www.w3.org/2000/svg" xmlns:xlink="http://www.w3.org/1999/xlink" x="0px" y="0px"
	 viewBox="0 0 1024 1024" style="enable-background:new 0 0 1024 1024;" xml:space="preserve">
<style type="text/css">
	.st0{fill:#FFFFFF;}
</style>
<rect class="st0" width="1024" height="1024"/>
<path d="M890.89,0H232.43c-40.93,0-74.24,33.29-74.24,74.22v65.98c-22.06,6.71-39.74,23.21-47.84,44.63
	c-33.02,7.52-57.8,37-57.8,72.26v703.57c0,34.92,28.41,63.33,63.33,63.33c0.05,0,0.09-0.01,0.14-0.01h781.2
	c40.93,0,74.23-33.29,74.23-74.22V80.54C971.45,36.13,935.31,0,890.89,0z M158.19,960.67c0,23.32-18.98,42.31-42.31,42.31v0.01
	c-23.34,0-42.32-18.99-42.32-42.32V257.1c0-21.83,13.23-40.59,32.07-48.79c-0.03,0.89-0.26,1.72-0.26,2.61v703.57h21.01V210.92
	c0-21.72,13.11-40.38,31.8-48.65V960.67z M296.44,143.98c0-17.74,14.38-32.12,32.12-32.12h200.5c17.74,0,32.12,14.38,32.12,32.12
	v200.5c0,17.74-14.38,32.12-32.12,32.12h-200.5c-17.74,0-32.12-14.38-32.12-32.12V143.98z M818.8,884.56H315.83
	c-10.71,0-19.39-8.68-19.39-19.4s8.68-19.39,19.39-19.39H818.8c10.71,0,19.4,8.68,19.4,19.39S829.51,884.56,818.8,884.56z
	 M818.8,782.97H315.83c-10.71,0-19.39-8.68-19.39-19.4s8.68-19.39,19.39-19.39H818.8c10.71,0,19.4,8.68,19.4,19.39
	S829.51,782.97,818.8,782.97z M818.8,681.38H315.83c-10.71,0-19.39-8.68-19.39-19.4s8.68-19.39,19.39-19.39H818.8
	c10.71,0,19.4,8.68,19.4,19.39S829.51,681.38,818.8,681.38z M818.8,579.79H315.83c-10.71,0-19.39-8.68-19.39-19.4
	S305.12,541,315.83,541H818.8c10.71,0,19.4,8.68,19.4,19.39S829.51,579.79,818.8,579.79z M818.8,478.2H315.83
	c-10.71,0-19.39-8.68-19.39-19.4s8.68-19.39,19.39-19.39H818.8c10.71,0,19.4,8.68,19.4,19.39S829.51,478.2,818.8,478.2z"/>
</svg>
